<?xml version="1.0"?>
<svg xmlns="http://www.w3.org/2000/svg" viewBox="0 0 50 50">
    <path style="line-height:normal;text-indent:0;text-align:start;text-decoration-line:none;text-decoration-style:solid;text-decoration-color:#000;text-transform:none;block-progression:tb;isolation:auto;mix-blend-mode:normal" d="M 11 6 C 8.2504839 6 6 8.2504839 6 11 L 6 39 C 6 41.749516 8.2504839 44 11 44 L 39 44 C 41.749516 44 44 41.749516 44 39 L 44 11 C 44 8.2504839 41.749516 6 39 6 L 11 6 z M 22.28125 18.195312 C 23.58025 18.195312 24.628828 18.491031 25.423828 19.082031 C 26.217828 19.672031 26.615234 20.468703 26.615234 21.470703 C 26.615234 22.163703 26.423062 22.781266 26.039062 23.322266 C 25.656063 23.864266 25.036594 24.346437 24.183594 24.773438 C 25.198594 25.317438 25.926141 25.886563 26.369141 26.476562 C 26.810141 27.067563 27.033203 27.714922 27.033203 28.419922 C 27.033203 29.532922 26.595609 30.427469 25.724609 31.105469 C 24.851609 31.782469 23.705203 32.121094 22.283203 32.121094 C 20.799203 32.121094 19.632156 31.806781 18.785156 31.175781 C 17.937156 30.544781 17.515625 29.651141 17.515625 28.494141 C 17.515625 27.721141 17.720812 27.036547 18.132812 26.435547 C 18.543813 25.835547 19.202328 25.307609 20.111328 24.849609 C 19.338328 24.361609 18.781406 23.83825 18.441406 23.28125 C 18.101406 22.72425 17.931641 22.115125 17.931641 21.453125 C 17.931641 20.482125 18.332719 19.697656 19.136719 19.097656 C 19.940719 18.496656 20.98825 18.195312 22.28125 18.195312 z M 35.177734 18.214844 C 35.949734 18.214844 36.557094 18.260516 36.996094 18.353516 L 36.996094 20.644531 C 36.445094 20.520531 35.900281 20.458984 35.363281 20.458984 C 34.379281 20.458984 33.577078 20.607297 32.955078 20.904297 C 32.334078 21.201297 31.867594 21.639703 31.558594 22.220703 C 31.249594 22.802703 31.067719 23.627266 31.011719 24.697266 L 31.132812 24.697266 C 31.743813 23.646266 32.724266 23.121094 34.072266 23.121094 C 35.284266 23.121094 36.233875 23.500719 36.921875 24.261719 C 37.607875 25.022719 37.951172 26.074016 37.951172 27.416016 C 37.951172 28.863016 37.543563 30.009516 36.726562 30.853516 C 35.910562 31.698516 34.778078 32.119141 33.330078 32.119141 C 32.328078 32.119141 31.453984 31.887828 30.708984 31.423828 C 29.963984 30.959828 29.388422 30.283578 28.982422 29.392578 C 28.576422 28.501578 28.376953 27.429828 28.376953 26.173828 C 28.376953 23.489828 28.943125 21.492641 30.078125 20.181641 C 31.213125 18.870641 32.913734 18.214844 35.177734 18.214844 z M 22.263672 20.292969 C 21.775672 20.292969 21.380078 20.417969 21.080078 20.667969 C 20.779078 20.918969 20.630859 21.252828 20.630859 21.673828 C 20.630859 22.044828 20.750281 22.378875 20.988281 22.671875 C 21.225281 22.965875 21.65625 23.267172 22.28125 23.576172 C 22.88725 23.292172 23.311734 23.000125 23.552734 22.703125 C 23.794734 22.406125 23.914062 22.063828 23.914062 21.673828 C 23.914062 21.246828 23.761172 20.909109 23.451172 20.662109 C 23.142172 20.416109 22.745672 20.292969 22.263672 20.292969 z M 33.330078 25.320312 C 32.749078 25.320312 32.252797 25.509719 31.841797 25.886719 C 31.430797 26.263719 31.224609 26.702125 31.224609 27.203125 C 31.224609 27.939125 31.417688 28.561359 31.804688 29.068359 C 32.191688 29.575359 32.682391 29.830078 33.275391 29.830078 C 33.887391 29.830078 34.357547 29.623891 34.685547 29.212891 C 35.013547 28.800891 35.177734 28.215078 35.177734 27.455078 C 35.177734 26.793078 35.023797 26.272578 34.716797 25.892578 C 34.410797 25.511578 33.948078 25.320312 33.330078 25.320312 z M 10.822266 25.501953 L 12.023438 25.501953 L 13.681641 27.927734 L 15.322266 25.501953 L 16.511719 25.501953 L 14.289062 28.648438 L 16.634766 31.935547 L 15.433594 31.935547 L 13.681641 29.369141 L 11.90625 31.935547 L 10.716797 31.935547 L 13.042969 28.648438 L 10.822266 25.501953 z M 22.142578 26.025391 C 20.825578 26.631391 20.167969 27.398172 20.167969 28.326172 C 20.167969 28.858172 20.353609 29.273312 20.724609 29.570312 C 21.095609 29.867312 21.601141 30.015625 22.244141 30.015625 C 22.955141 30.015625 23.488797 29.862641 23.841797 29.556641 C 24.194797 29.250641 24.369141 28.846703 24.369141 28.345703 C 24.369141 27.931703 24.193703 27.544641 23.845703 27.181641 C 23.495703 26.820641 22.928578 26.433391 22.142578 26.025391 z" font-weight="400" font-family="sans-serif" white-space="normal" overflow="visible"/>
</svg>
